<?xml version="1.0" standalone="no"?>
<!DOCTYPE svg PUBLIC "-//W3C//DTD SVG 20010904//EN"
 "http://www.w3.org/TR/2001/REC-SVG-20010904/DTD/svg10.dtd">
<svg version="1.0" xmlns="http://www.w3.org/2000/svg"
 width="1024.000000pt" height="1024.000000pt" viewBox="0 0 1024.000000 1024.000000"
 preserveAspectRatio="xMidYMid meet">
<metadata>
Created by potrace 1.11, written by Peter Selinger 2001-2013
</metadata>
<g transform="translate(0.000000,1024.000000) scale(0.100000,-0.100000)"
fill="#000000" stroke="none">
<path d="M19 9185 c-1 -580 -2 -1061 -3 -1067 -1 -12 165 -138 234 -178 19
-12 53 -34 75 -50 49 -37 286 -188 414 -264 217 -130 586 -297 766 -346 142
-39 191 -50 375 -81 100 -17 473 -17 565 0 39 7 95 17 125 22 78 14 224 56
300 85 232 90 521 263 735 439 130 107 398 372 520 515 383 446 609 904 694
1400 19 113 41 366 41 475 l0 105 -2420 0 -2420 0 -1 -1055z"/>
<path d="M7435 10206 c-55 -18 -115 -36 -134 -40 -35 -6 -61 -22 -61 -36 0 -5
9 -6 21 -3 27 7 59 -28 66 -74 5 -31 4 -35 -11 -30 -13 5 -11 -3 9 -40 18 -31
21 -44 11 -40 -22 9 -34 -59 -27 -156 1 -4 12 -12 26 -17 31 -12 32 -30 4 -54
-17 -14 -20 -24 -14 -54 4 -20 8 -43 8 -51 0 -10 4 -8 13 4 11 15 17 16 36 6
13 -6 15 -9 6 -7 -11 3 -18 0 -18 -9 0 -7 -9 -17 -20 -20 -14 -4 -20 -15 -20
-33 0 -34 15 -59 24 -43 9 14 36 14 36 0 0 -5 -3 -8 -8 -5 -4 2 -16 -2 -27
-10 -10 -8 -14 -14 -7 -14 6 0 14 -11 18 -25 3 -14 10 -25 16 -25 5 0 7 -4 4
-9 -4 -5 0 -11 6 -14 10 -3 8 -9 -4 -23 -11 -11 -18 -13 -18 -6 0 7 -5 12 -11
12 -5 0 -7 -4 -4 -10 3 -5 1 -10 -5 -10 -6 0 -8 -5 -5 -10 4 -6 10 -8 13 -6 4
2 8 -9 8 -25 1 -21 -3 -29 -15 -29 -14 0 -14 -2 -1 -10 10 -6 16 -6 18 0 7 19
18 10 20 -15 2 -23 0 -24 -19 -14 -11 6 -23 8 -26 5 -3 -3 6 -10 21 -16 15 -5
25 -14 21 -19 -3 -5 0 -13 6 -16 6 -4 8 -18 4 -34 -6 -23 -9 -86 -6 -118 0 -7
6 -13 12 -13 6 0 8 7 5 16 -7 18 10 44 28 44 6 0 3 -7 -8 -15 -10 -7 -15 -19
-11 -25 5 -8 11 -7 22 2 12 10 18 9 29 -7 8 -10 14 -23 14 -29 0 -5 -6 -1 -14
10 -12 15 -17 17 -27 7 -11 -11 -10 -13 4 -13 23 0 22 -30 0 -31 -15 0 -15 -2
2 -8 11 -5 25 -6 32 -4 21 8 35 -7 22 -23 -12 -15 -34 -20 -25 -5 3 5 -4 11
-15 14 -15 4 -19 2 -15 -10 4 -9 1 -13 -6 -11 -7 3 -14 14 -16 26 -2 12 -7 20
-12 17 -5 -3 -7 -12 -3 -20 3 -8 0 -15 -6 -15 -6 0 -11 -4 -11 -10 0 -5 11
-10 24 -10 31 0 40 -14 26 -39 -7 -13 -7 -22 0 -26 5 -3 10 -1 10 6 0 7 2 10
5 7 10 -10 -8 -39 -21 -34 -8 3 -14 -1 -14 -10 0 -9 6 -14 13 -11 8 3 14 -3
14 -14 1 -10 -5 -19 -12 -19 -9 0 -12 -6 -9 -15 4 -8 12 -15 20 -15 8 0 14 7
14 15 0 8 8 15 18 15 15 0 15 -2 2 -10 -13 -9 -12 -13 5 -26 19 -16 19 -16
-11 -11 -16 3 -36 7 -43 9 -8 2 -15 -2 -18 -8 -2 -7 5 -10 22 -7 18 4 25 1 25
-11 0 -21 18 -20 42 1 17 15 18 15 18 0 0 -10 -4 -17 -10 -17 -5 0 -10 -6 -10
-14 0 -10 7 -12 22 -8 19 5 21 2 15 -27 -6 -29 -5 -31 18 -27 14 3 25 0 25 -5
0 -5 -8 -9 -17 -7 -14 2 -18 -4 -17 -29 2 -35 -10 -44 -20 -16 -4 9 -1 20 6
25 8 6 -2 8 -27 5 -44 -5 -114 20 -115 41 0 7 -13 12 -29 12 -17 0 -33 5 -36
10 -3 6 -15 10 -26 10 -11 0 -17 5 -14 10 3 6 -2 10 -12 10 -11 0 -28 7 -39
15 -10 8 -27 15 -36 15 -10 0 -18 5 -18 11 0 5 -5 7 -12 3 -6 -4 -16 0 -22 8
-15 20 -50 38 -76 38 -12 0 -18 4 -15 10 3 5 -5 12 -19 16 -13 3 -27 12 -30
20 -3 8 -11 14 -18 12 -7 -2 -27 7 -45 20 -17 12 -38 22 -47 22 -9 0 -16 3
-16 8 0 4 -18 16 -40 26 -22 11 -40 23 -40 28 0 4 -7 8 -15 8 -8 0 -15 5 -15
10 0 6 -7 10 -15 10 -9 0 -18 6 -21 14 -3 8 -18 18 -34 21 -15 3 -41 19 -56
35 -16 16 -37 30 -46 30 -9 0 -23 8 -30 18 -16 20 -58 46 -65 38 -5 -5 111
-92 197 -148 30 -19 87 -55 125 -80 39 -24 77 -48 85 -52 8 -4 36 -19 61 -34
233 -135 528 -284 887 -448 42 -20 100 -46 129 -60 28 -13 54 -24 57 -24 3 0
54 -23 113 -51 179 -85 275 -130 343 -162 445 -207 687 -376 833 -580 51 -71
117 -201 117 -229 0 -9 4 -19 8 -22 5 -3 17 -48 27 -101 15 -83 17 -128 12
-323 -4 -125 -9 -252 -11 -282 -3 -30 -10 -107 -16 -170 -6 -63 -15 -167 -20
-230 -15 -198 -30 -354 -36 -370 -11 -29 -25 -320 -31 -635 -5 -313 3 -517 28
-660 15 -86 38 -203 51 -255 16 -71 89 -294 99 -305 5 -5 9 -16 9 -24 0 -27
120 -253 194 -364 121 -183 236 -310 412 -455 29 -23 55 -42 58 -42 3 0 6
1352 6 3004 l0 3004 -26 17 c-43 28 -283 246 -375 341 -117 121 -252 273 -387
437 -121 146 -246 268 -351 342 l-65 45 -750 0 -751 -1 -100 -33z m-45 -126
c0 -5 -2 -10 -4 -10 -3 0 -8 5 -11 10 -3 6 -1 10 4 10 6 0 11 -4 11 -10z m-17
-201 c-6 -6 -19 -9 -29 -6 -17 3 -16 5 6 14 28 12 39 8 23 -8z m27 -234 c0 -8
-4 -15 -10 -15 -5 0 -10 7 -10 15 0 8 5 15 10 15 6 0 10 -7 10 -15z m-30 -75
c0 -5 -4 -10 -10 -10 -5 0 -10 5 -10 10 0 6 5 10 10 10 6 0 10 -4 10 -10z
m-10 -40 c0 -5 -4 -10 -10 -10 -5 0 -10 5 -10 10 0 6 5 10 10 10 6 0 10 -4 10
-10z m80 -70 c0 -5 -10 -10 -22 -10 -19 0 -20 2 -8 10 19 13 30 13 30 0z m11
-103 c-6 -6 -11 -19 -11 -28 0 -9 -9 -19 -20 -22 -23 -6 -27 11 -5 19 8 4 12
10 9 15 -3 5 0 9 5 9 6 0 11 7 11 16 0 8 5 12 11 8 8 -4 8 -9 0 -17z m-44 -7
c-1 -11 -7 -20 -14 -20 -15 0 -15 2 -7 24 9 23 23 20 21 -4z m83 -60 c0 -5 -4
-10 -10 -10 -5 0 -10 5 -10 10 0 6 5 10 10 10 6 0 10 -4 10 -10z m-30 -72 c0
-16 -3 -19 -11 -11 -6 6 -8 16 -5 22 11 17 16 13 16 -11z m-30 -39 c0 -6 -4
-7 -10 -4 -5 3 -10 11 -10 16 0 6 5 7 10 4 6 -3 10 -11 10 -16z m54 -305 c-6
-3 -9 -16 -6 -29 2 -14 0 -25 -5 -25 -5 0 -8 12 -7 28 3 34 2 32 17 31 8 0 8
-2 1 -5z m115 -263 c14 -9 9 -41 -7 -41 -5 0 -15 7 -22 15 -11 13 -10 14 6 8
17 -6 17 -5 5 10 -14 18 -5 22 18 8z m96 -91 c-3 -5 -11 -10 -16 -10 -6 0 -7
5 -4 10 3 6 11 10 16 10 6 0 7 -4 4 -10z"/>
<path d="M7098 10103 c6 -2 18 -2 25 0 6 3 1 5 -13 5 -14 0 -19 -2 -12 -5z"/>
<path d="M7255 10100 c-23 -10 -20 -12 18 -14 15 -1 26 2 24 8 -5 14 -19 16
-42 6z"/>
<path d="M7170 10085 c0 -8 2 -15 4 -15 2 0 6 7 10 15 3 8 1 15 -4 15 -6 0
-10 -7 -10 -15z"/>
<path d="M7205 10069 c-16 -6 -14 -8 13 -8 33 -1 41 4 20 12 -7 2 -22 1 -33
-4z"/>
<path d="M6295 9315 c33 -30 64 -55 70 -55 5 0 -18 25 -50 55 -33 30 -64 54
-70 55 -5 0 17 -25 50 -55z"/>
<path d="M6400 9233 c0 -11 82 -74 88 -68 2 2 -10 17 -28 32 -42 35 -60 46
-60 36z"/>
<path d="M7315 9060 c-3 -5 -1 -10 4 -10 6 0 11 5 11 10 0 6 -2 10 -4 10 -3 0
-8 -4 -11 -10z"/>
<path d="M7392 8891 c2 -7 7 -12 11 -12 12 1 9 15 -3 20 -7 2 -11 -2 -8 -8z"/>
<path d="M7420 8732 c0 -4 14 -20 30 -34 25 -22 32 -24 37 -12 3 9 2 19 -3 23
-16 13 -64 31 -64 23z"/>
<path d="M7495 8670 c-3 -6 1 -7 9 -4 18 7 21 14 7 14 -6 0 -13 -4 -16 -10z"/>
<path d="M7810 7901 c0 -6 8 -11 19 -11 10 0 24 -7 31 -15 7 -8 23 -15 36 -15
13 0 24 -4 24 -10 0 -5 6 -10 14 -10 8 0 21 -6 28 -13 7 -7 26 -22 42 -32 16
-11 24 -21 17 -23 -6 -2 -9 -8 -6 -12 3 -5 13 -6 21 -3 9 3 20 0 24 -7 10 -16
1 -42 -11 -34 -5 3 -14 -7 -19 -21 -6 -15 -15 -23 -21 -19 -8 5 -8 9 1 14 7 4
9 16 6 28 -6 18 -11 19 -35 11 -26 -9 -27 -12 -17 -34 6 -13 15 -21 21 -17 5
3 2 -4 -8 -15 -9 -11 -14 -23 -10 -26 3 -4 1 -7 -5 -7 -7 0 -12 5 -12 12 0 6
-6 4 -13 -7 -8 -10 -19 -15 -25 -11 -8 5 -12 0 -12 -13 0 -12 -3 -20 -7 -20
-5 1 -11 0 -15 -1 -9 -3 -24 -7 -34 -9 -4 0 -1 -8 6 -16 11 -13 8 -15 -19 -15
-19 0 -30 -4 -26 -10 3 -5 -2 -10 -12 -11 -10 0 -13 -3 -5 -6 6 -2 12 -11 12
-19 0 -12 -4 -12 -20 -4 -16 9 -18 8 -14 -5 4 -10 0 -15 -11 -15 -9 0 -13 4
-10 10 3 6 -1 7 -10 3 -11 -4 -13 -8 -5 -13 8 -5 7 -10 -4 -19 -12 -10 -15 -9
-19 6 -3 10 -5 3 -6 -14 -1 -26 -5 -33 -21 -33 -14 0 -18 5 -13 17 4 11 3 14
-5 9 -7 -4 -12 -14 -12 -21 0 -17 -34 -38 -44 -27 -4 3 -4 -2 0 -11 5 -13 -3
-28 -26 -50 -21 -21 -35 -28 -37 -19 -7 19 -23 14 -23 -8 0 -11 -7 -23 -15
-26 -8 -4 -15 -13 -15 -21 0 -10 -6 -12 -19 -8 -11 3 -22 2 -25 -4 -3 -5 -16
-7 -29 -4 -16 4 -19 2 -8 -5 12 -9 11 -13 -4 -29 -13 -13 -20 -14 -23 -5 -2 8
-11 4 -24 -13 -10 -14 -16 -30 -12 -37 5 -8 2 -9 -9 -5 -13 5 -17 1 -18 -16
-1 -17 -2 -18 -6 -4 -7 25 -23 21 -20 -5 1 -16 -3 -22 -12 -20 -8 2 -25 1 -38
-3 -19 -4 -23 -10 -18 -28 4 -14 3 -18 -3 -9 -12 17 -42 4 -42 -19 0 -13 -5
-17 -17 -12 -11 5 -14 3 -8 -6 4 -8 2 -17 -6 -22 -18 -11 -32 -11 -25 0 3 5
-1 11 -9 15 -8 3 -19 -3 -25 -14 -12 -23 -13 -40 -1 -21 5 7 14 10 20 7 17
-11 13 -23 -9 -29 -11 -3 -20 -12 -20 -21 0 -9 -3 -16 -6 -16 -11 0 -33 28
-27 34 4 3 -5 6 -18 6 -13 0 -19 -4 -14 -8 13 -9 19 -46 6 -38 -10 6 -35 -14
-44 -36 -4 -10 -8 -9 -17 2 -10 12 -11 11 -7 -7 4 -18 -4 -28 -39 -50 -24 -16
-43 -34 -44 -42 0 -8 -7 -11 -20 -8 -10 3 -24 -1 -30 -8 -8 -10 -7 -14 7 -17
16 -3 16 -5 -4 -16 -19 -11 -22 -10 -17 3 4 8 1 15 -6 15 -6 0 -9 4 -6 8 2 4
-6 9 -19 10 -13 1 -27 -3 -31 -9 -4 -8 1 -9 16 -4 19 6 21 5 11 -13 -12 -22
-41 -37 -41 -21 0 6 -7 17 -15 25 -8 8 -12 21 -8 30 3 8 -1 20 -10 27 -14 12
-27 47 -33 96 -6 48 -14 32 -14 -27 0 -35 4 -62 10 -62 6 0 10 -11 10 -24 0
-32 49 -151 88 -215 114 -184 294 -318 512 -381 94 -27 287 -38 386 -21 308
52 571 253 696 531 35 76 54 146 72 261 25 161 -6 342 -86 503 -49 100 -67
125 -148 210 -82 86 -213 176 -257 176 -7 0 -13 4 -13 9 0 5 -19 14 -42 20
-24 7 -49 15 -55 17 -7 3 -13 1 -13 -5z m-540 -811 c0 -5 -7 -7 -15 -4 -8 4
-15 8 -15 10 0 2 7 4 15 4 8 0 15 -4 15 -10z m-525 -390 c3 -5 1 -10 -4 -10
-6 0 -11 5 -11 10 0 6 2 10 4 10 3 0 8 -4 11 -10z"/>
<path d="M7855 7610 c3 -5 10 -10 16 -10 5 0 9 5 9 10 0 6 -7 10 -16 10 -8 0
-12 -4 -9 -10z"/>
<path d="M6630 7048 c0 -29 5 -60 10 -68 7 -11 10 5 10 53 0 38 -4 67 -10 67
-5 0 -10 -24 -10 -52z"/>
<path d="M6925 6900 c3 -5 8 -10 11 -10 2 0 4 5 4 10 0 6 -5 10 -11 10 -5 0
-7 -4 -4 -10z"/>
<path d="M350 6639 c0 -5 6 -9 14 -9 29 0 131 -67 199 -130 27 -25 53 -46 58
-48 15 -6 10 -32 -7 -32 -8 0 -12 -4 -9 -10 3 -5 -3 -10 -15 -10 -12 0 -24 -9
-30 -24 -5 -15 -20 -27 -39 -31 -18 -4 -31 -13 -31 -21 0 -9 -5 -12 -11 -8 -7
4 -7 -1 1 -16 11 -21 10 -22 -6 -16 -32 13 -55 15 -49 6 3 -5 -4 -18 -16 -29
-12 -11 -18 -24 -14 -30 3 -6 0 -11 -8 -11 -8 0 -14 8 -13 17 0 10 -7 19 -16
21 -14 3 -18 -3 -18 -30 0 -26 -3 -30 -11 -18 -8 11 -12 12 -16 3 -2 -7 -13
-13 -23 -13 -10 0 -21 -9 -25 -19 -3 -11 -18 -24 -34 -29 -20 -7 -30 -19 -36
-43 -5 -23 -9 -28 -12 -16 -6 23 -19 22 -26 -4 -5 -18 -12 -21 -42 -17 -30 3
-36 1 -41 -18 -3 -13 -3 -28 1 -33 3 -6 1 -11 -4 -11 -12 0 -13 2 -17 80 -2
30 -5 69 -7 85 -2 17 -5 71 -7 120 l-3 90 -7 -112 c-4 -62 -9 -389 -11 -725
l-4 -613 40 -3 c78 -7 239 35 350 91 253 126 434 359 490 631 21 101 20 277
-1 375 -55 248 -213 455 -438 575 -60 32 -106 47 -106 35z m255 -259 c3 -5 1
-10 -4 -10 -6 0 -11 5 -11 10 0 6 2 10 4 10 3 0 8 -4 11 -10z"/>
<path d="M500 6360 c0 -5 5 -10 11 -10 5 0 7 5 4 10 -3 6 -8 10 -11 10 -2 0
-4 -4 -4 -10z"/>
<path d="M7970 5570 c0 -5 5 -10 11 -10 19 0 129 -91 129 -107 0 -9 -6 -13
-15 -9 -9 3 -15 0 -15 -8 0 -13 -22 -28 -45 -31 -5 0 -9 -6 -7 -13 1 -7 -5
-12 -13 -12 -22 0 -75 -41 -75 -58 0 -9 -7 -11 -19 -7 -15 4 -20 0 -23 -17 -2
-17 -9 -22 -26 -21 -12 2 -25 -4 -28 -11 -3 -8 -12 -12 -19 -10 -7 3 -21 -6
-30 -20 -9 -13 -23 -22 -30 -20 -7 3 -35 -16 -62 -42 -26 -26 -49 -47 -50 -46
-2 1 -17 -5 -35 -13 -18 -7 -36 -11 -39 -9 -4 2 -6 -4 -5 -14 1 -11 -5 -16
-16 -14 -16 3 -23 -8 -19 -31 1 -4 -7 -3 -18 2 -22 12 -35 3 -21 -14 7 -8 3
-11 -13 -11 -13 1 -21 -4 -19 -11 1 -7 -7 -13 -18 -13 -11 0 -30 -10 -42 -22
l-21 -21 -22 25 c-12 14 -25 44 -29 67 -3 22 -11 41 -16 41 -15 0 -11 -83 5
-104 8 -11 15 -29 15 -41 0 -25 50 -107 93 -153 111 -118 312 -178 464 -139
186 48 316 174 368 356 32 114 10 262 -55 375 -37 66 -125 148 -187 176 -53
23 -53 23 -53 10z"/>
<path d="M1195 5110 c-144 -26 -283 -92 -377 -179 l-53 -49 90 -94 c50 -51 94
-95 98 -97 5 -2 23 10 40 27 83 78 206 122 344 122 153 0 248 -60 272 -171 6
-29 8 -56 4 -59 -5 -4 -93 -12 -198 -18 -295 -16 -446 -64 -567 -180 -69 -66
-104 -134 -120 -235 -35 -225 112 -422 351 -473 88 -18 242 -18 316 1 69 18
140 55 194 101 l39 33 11 -59 12 -60 118 0 c111 0 119 1 140 24 15 16 20 29
15 38 -5 7 -12 213 -15 458 -7 482 -10 512 -66 626 -54 111 -135 178 -271 221
-61 20 -103 26 -202 28 -69 2 -147 0 -175 -5z m422 -786 c10 -26 -16 -153 -42
-203 -34 -69 -114 -137 -183 -157 -77 -23 -212 -16 -269 14 -67 35 -83 63 -83
148 0 71 2 76 36 113 62 69 178 97 407 100 108 1 129 -1 134 -15z"/>
<path d="M2900 5114 c-78 -15 -185 -60 -250 -104 -39 -28 -73 -50 -76 -50 -2
0 -4 20 -4 45 0 73 -19 85 -140 85 -94 0 -103 -2 -125 -25 l-25 -24 0 -954 0
-954 23 -21 c21 -20 34 -22 145 -22 l122 0 0 384 c0 344 5 429 23 382 10 -27
159 -116 230 -138 61 -20 94 -23 217 -23 132 0 152 3 218 27 222 80 384 264
438 497 20 85 20 278 0 365 -74 315 -329 520 -661 531 -60 2 -121 1 -135 -1z
m271 -311 c218 -108 301 -387 183 -623 -80 -159 -253 -243 -436 -212 -187 32
-310 167 -340 369 -27 183 54 365 200 450 72 43 119 53 228 50 90 -2 107 -6
165 -34z"/>
<path d="M4604 5101 c-85 -23 -153 -56 -217 -105 -26 -20 -49 -36 -52 -36 -3
0 -5 19 -5 43 0 33 -6 49 -23 65 -21 20 -34 22 -123 22 -74 0 -105 -4 -122
-16 l-22 -15 0 -968 c0 -932 1 -969 19 -985 15 -14 37 -16 142 -14 l124 3 3
388 2 388 45 -39 c51 -45 143 -96 212 -118 78 -25 266 -30 359 -9 311 68 524
351 524 695 0 211 -66 377 -204 516 -92 91 -144 123 -271 166 -120 40 -283 48
-391 19z m267 -277 c113 -33 200 -111 252 -223 25 -56 31 -82 35 -168 5 -113
-4 -163 -45 -249 -114 -242 -464 -298 -660 -105 -87 87 -128 205 -121 350 11
200 106 332 283 393 64 22 184 23 256 2z"/>
<path d="M3335 2616 c-333 -72 -582 -269 -721 -570 -195 -423 -62 -934 316
-1215 305 -227 694 -262 1035 -94 261 128 458 370 530 650 24 92 34 238 24
342 -22 234 -121 444 -288 612 -147 146 -293 225 -515 274 -135 31 -243 31
-381 1z m340 -674 c118 -59 184 -160 192 -292 7 -102 -20 -174 -94 -251 -76
-80 -133 -104 -248 -104 -78 0 -97 4 -147 28 -72 35 -130 93 -165 165 -24 50
-28 69 -28 147 0 74 5 99 24 137 33 68 96 135 155 165 71 36 100 43 181 39 54
-2 84 -10 130 -34z"/>
<path d="M7160 2631 c-14 -5 -54 -14 -89 -20 -81 -16 -197 -61 -282 -111 -298
-176 -479 -503 -479 -865 0 -208 59 -404 172 -571 48 -71 164 -190 235 -240
164 -118 397 -194 590 -194 178 0 397 66 549 165 79 52 240 214 292 295 l42
65 0 316 c0 293 -1 317 -18 332 -17 15 -57 17 -374 17 -331 0 -356 -1 -371
-18 -15 -16 -17 -46 -17 -214 0 -218 2 -223 70 -230 l35 -3 -38 -22 c-56 -33
-119 -46 -197 -41 -126 9 -230 81 -286 196 -24 49 -27 69 -28 147 0 76 5 99
26 146 33 73 89 134 152 167 45 23 63 26 147 27 90 0 99 -2 171 -37 86 -43
108 -46 132 -19 10 11 91 124 181 252 131 186 162 236 152 247 -15 19 -113 85
-162 109 -60 31 -181 71 -265 89 -84 18 -301 28 -340 15z"/>
<path d="M757 2572 c-16 -17 -17 -97 -17 -939 0 -878 1 -921 18 -936 16 -15
53 -17 309 -17 l291 0 16 24 c13 21 16 68 18 305 l3 281 218 -305 218 -305
253 0 c250 0 253 0 274 23 l22 23 0 905 c0 903 0 906 -21 933 l-20 26 -288 0
c-287 0 -288 0 -309 -23 -21 -22 -22 -32 -24 -307 l-3 -284 -219 307 -219 307
-252 0 c-231 0 -253 -1 -268 -18z"/>
<path d="M4687 2572 c-16 -17 -17 -97 -17 -939 0 -878 1 -921 18 -936 16 -15
53 -17 314 -17 271 0 296 1 311 18 14 15 17 47 19 177 l3 159 76 -129 c42 -72
88 -151 104 -177 l27 -48 357 0 357 0 16 28 17 28 -151 265 c-83 145 -155 274
-161 286 -8 19 -2 30 47 84 64 72 137 213 157 304 19 92 15 275 -9 366 -63
236 -230 411 -472 492 -147 49 -232 57 -630 57 -343 0 -368 -1 -383 -18z m762
-585 c63 -31 82 -62 82 -129 0 -76 -21 -115 -78 -140 -26 -11 -63 -23 -85 -25
l-38 -6 0 168 0 167 38 -6 c20 -4 57 -17 81 -29z"/>
<path d="M8357 2572 c-16 -17 -17 -97 -17 -939 0 -878 1 -921 18 -936 17 -15
71 -17 569 -17 l550 0 21 23 c21 23 22 31 22 258 0 233 0 236 -23 257 -23 21
-31 22 -260 22 l-237 0 0 65 0 65 223 0 c293 0 267 -27 267 271 0 295 26 269
-268 269 l-222 0 0 60 0 60 230 0 c217 0 231 1 250 20 19 19 20 33 20 258 0
236 0 239 -23 260 l-23 22 -541 0 c-510 0 -541 -1 -556 -18z"/>
</g>
</svg>
